<?xml version="1.0" standalone="no"?>
<!DOCTYPE svg PUBLIC "-//W3C//DTD SVG 20010904//EN"
 "http://www.w3.org/TR/2001/REC-SVG-20010904/DTD/svg10.dtd">
<svg version="1.0" xmlns="http://www.w3.org/2000/svg"
 width="79.000000pt" height="81.000000pt" viewBox="0 0 79.000000 81.000000"
 preserveAspectRatio="xMidYMid meet">

<g transform="translate(0.000000,81.000000) scale(0.100000,-0.100000)"
fill="#000000" stroke="none">
<path d="M382 585 c-41 -29 -22 -95 28 -95 40 0 65 36 51 74 -6 14 -15 26 -20
26 -5 0 -15 2 -23 5 -7 3 -23 -2 -36 -10z"/>
<path d="M180 481 c0 -37 2 -39 38 -45 20 -3 51 -15 69 -26 34 -20 83 -104 83
-140 0 -17 6 -20 40 -20 39 0 40 1 51 46 16 63 71 119 132 136 46 12 47 13 47
50 0 31 -4 38 -20 38 -42 0 -131 -43 -168 -81 l-39 -39 -46 45 c-31 29 -63 49
-98 60 -81 23 -89 21 -89 -24z"/>
</g>
</svg>
